<svg xmlns="http://www.w3.org/2000/svg" xmlns:xlink="http://www.w3.org/1999/xlink" width="960" height="776.43"><rect width="960" height="776.43" rx="5" ry="5" class="a"/><svg y="0%" x="0%"><circle cx="20" cy="20" r="6" fill="#ff5f58"/><circle cx="40" cy="20" r="6" fill="#ffbd2e"/><circle cx="60" cy="20" r="6" fill="#18c132"/></svg><svg height="716.43" viewBox="0 0 92 71.643" width="920" x="15" xmlns="http://www.w3.org/2000/svg" xmlns:xlink="http://www.w3.org/1999/xlink" y="50"><style>@keyframes p{0%{transform:translateX(0)}5.57%{transform:translateX(-92px)}5.93%{transform:translateX(-184px)}6.11%{transform:translateX(-368px)}6.12%{transform:translateX(-460px)}15.91%{transform:translateX(-552px)}15.94%{transform:translateX(-644px)}17.47%{transform:translateX(-736px)}18.05%{transform:translateX(-828px)}18.66%{transform:translateX(-920px)}19.52%{transform:translateX(-1012px)}20.31%{transform:translateX(-1104px)}20.74%{transform:translateX(-1196px)}22.63%{transform:translateX(-1380px)}22.64%{transform:translateX(-1564px)}24.73%{transform:translateX(-1656px)}24.74%{transform:translateX(-1748px)}24.76%{transform:translateX(-1840px)}24.81%{transform:translateX(-1932px)}25.21%{transform:translateX(-2024px)}25.36%{transform:translateX(-2300px)}26.91%{transform:translateX(-2392px)}27.61%{transform:translateX(-2484px)}28.1%{transform:translateX(-2576px)}29.24%{transform:translateX(-2668px)}30.09%{transform:translateX(-2760px)}30.54%{transform:translateX(-2852px)}38.47%{transform:translateX(-2944px)}45.38%{transform:translateX(-3036px)}45.99%{transform:translateX(-3128px)}46.66%{transform:translateX(-3220px)}49.43%{transform:translateX(-3312px)}51.4%{transform:translateX(-3404px)}51.41%{transform:translateX(-3588px)}53.54%{transform:translateX(-3680px)}53.58%{transform:translateX(-3772px)}53.96%{transform:translateX(-3864px)}54.11%{transform:translateX(-4140px)}59.33%{transform:translateX(-4232px)}67.77%{transform:translateX(-4416px)}67.8%{transform:translateX(-4508px)}67.91%{transform:translateX(-4600px)}68.93%{transform:translateX(-4692px)}69.67%{transform:translateX(-4784px)}69.93%{transform:translateX(-4876px)}70.56%{transform:translateX(-4968px)}75.73%{transform:translateX(-5060px)}77.2%{transform:translateX(-5152px)}81.27%{transform:translateX(-5244px)}84.03%{transform:translateX(-5336px)}84.05%{transform:translateX(-5520px)}86.15%{transform:translateX(-5612px)}86.2%{transform:translateX(-5704px)}86.58%{transform:translateX(-5796px)}86.73%{transform:translateX(-6072px)}to{transform:translateX(-6164px)}}.a{fill:#282d35}.g,.h,.i,.j{fill:#b9c0cb;white-space:pre}.h,.i,.j{fill:#d290e4;font-weight:700}.i,.j{fill:#e88388}.j{fill:#a8cc8c}.k,.l,.m,.r{fill:#6f7783;white-space:pre}.l,.m,.r{fill:#a8cc8c}.m,.r{fill:#dbab79}.r{fill:#b9c0cb;text-decoration:underline}</style><g font-family="Monaco,Consolas,Menlo,'Bitstream Vera Sans Mono','Powerline Symbols',monospace" font-size="1.67"><defs><symbol id="12"><text x="2.004" y="1.67" class="g">mkContractAddress</text><text x="20.04" y="1.67" class="g">(mkca)</text><text x="33.066" y="1.67" class="g">calculate</text><text x="43.086" y="1.67" class="g">contract</text><text x="52.104" y="1.67" class="g">address</text><text x="60.12" y="1.67" class="g">by</text><text x="63.126" y="1.67" class="g">sender</text><text x="70.14" y="1.67" class="g">and</text><text x="74.148" y="1.67" class="g">nonce</text></symbol><symbol id="1"><text y="1.67" style="white-space:pre" fill="#66c2cd" font-weight="700">ethkit</text><text x="7.014" y="1.67" class="g">on</text><text x="10.02" y="1.67" class="h"></text><text x="12.024" y="1.67" class="h">main</text><text x="17.034" y="1.67" class="i">[!]</text><text x="21.042" y="1.67" class="g">via</text><text x="25.05" y="1.67" class="j">⬢</text><text x="27.054" y="1.67" class="j">v10.22.1</text></symbol><symbol id="3"><text y="1.67" class="j">❯</text><text x="2.004" y="1.67" class="i">et</text><text x="4.008" y="1.67" class="k">hkit</text><text x="9.018" y="1.67" class="k">sig</text><text x="13.026" y="1.67" class="k">&apos;transfer(address</text><text x="31.062" y="1.67" class="k">a,</text><text x="36.072" y="1.67" class="k">uint</text><text x="41.082" y="1.67" class="k">b)&apos;</text></symbol><symbol id="4"><text y="1.67" class="j">❯</text><text x="2.004" y="1.67" class="i">eth</text><text x="5.01" y="1.67" class="k">kit</text><text x="9.018" y="1.67" class="k">sig</text><text x="13.026" y="1.67" class="k">&apos;transfer(address</text><text x="31.062" y="1.67" class="k">a,</text><text x="36.072" y="1.67" class="k">uint</text><text x="41.082" y="1.67" class="k">b)&apos;</text></symbol><symbol id="5"><text y="1.67" class="j">❯</text><text x="2.004" y="1.67" class="i">ethk</text><text x="6.012" y="1.67" class="k">it</text><text x="9.018" y="1.67" class="k">sig</text><text x="13.026" y="1.67" class="k">&apos;transfer(address</text><text x="31.062" y="1.67" class="k">a,</text><text x="36.072" y="1.67" class="k">uint</text><text x="41.082" y="1.67" class="k">b)&apos;</text></symbol><symbol id="6"><text y="1.67" class="j">❯</text><text x="2.004" y="1.67" class="i">ethki</text><text x="7.014" y="1.67" class="k">t</text><text x="9.018" y="1.67" class="k">sig</text><text x="13.026" y="1.67" class="k">&apos;transfer(address</text><text x="31.062" y="1.67" class="k">a,</text><text x="36.072" y="1.67" class="k">uint</text><text x="41.082" y="1.67" class="k">b)&apos;</text></symbol><symbol id="7"><text y="1.67" class="j">❯</text><text x="2.004" y="1.67" class="l">ethkit</text><text x="9.018" y="1.67" class="k">sig</text><text x="13.026" y="1.67" class="k">&apos;transfer(address</text><text x="31.062" y="1.67" class="k">a,</text><text x="36.072" y="1.67" class="k">uint</text><text x="41.082" y="1.67" class="k">b)&apos;</text></symbol><symbol id="8"><text y="1.67" class="j">❯</text><text x="2.004" y="1.67" class="l">ethkit</text></symbol><symbol id="9"><text y="1.67" class="g">ethkit</text><text x="7.014" y="1.67" class="g">version</text><text x="15.03" y="1.67" class="g">0.0.1</text></symbol><symbol id="10"><text x="2.004" y="1.67" class="g">ethkit</text><text x="33.066" y="1.67" class="g">-</text></symbol><symbol id="11"><text x="2.004" y="1.67" class="g">mappingIndex</text><text x="15.03" y="1.67" class="g">(mapi)</text><text x="33.066" y="1.67" class="g">calculate</text><text x="43.086" y="1.67" class="g">mapping</text><text x="51.102" y="1.67" class="g">storage</text><text x="59.118" y="1.67" class="g">index</text><text x="65.13" y="1.67" class="g">by</text><text x="68.136" y="1.67" class="g">key</text><text x="72.144" y="1.67" class="g">and</text><text x="76.152" y="1.67" class="g">position</text></symbol><symbol id="2"><text y="1.67" class="j">❯</text></symbol><symbol id="13"><text x="2.004" y="1.67" class="g">signature</text><text x="12.024" y="1.67" class="g">(sig)</text><text x="33.066" y="1.67" class="g">function</text><text x="42.084" y="1.67" class="g">signature</text></symbol><symbol id="14"><text x="2.004" y="1.67" class="g">storageAt</text><text x="12.024" y="1.67" class="g">(st)</text><text x="33.066" y="1.67" class="g">getStorageAt</text></symbol><symbol id="15"><text x="2.004" y="1.67" class="g">uniswapGetAmountOut</text><text x="22.044" y="1.67" class="g">(uniout)</text><text x="33.066" y="1.67" class="g">uniswap</text><text x="41.082" y="1.67" class="g">getAmountOut</text><text x="54.108" y="1.67" class="g">&lt;amountIn&gt;</text><text x="65.13" y="1.67" class="g">&lt;reverseIn&gt;</text><text x="77.154" y="1.67" class="g">&lt;reserveOut&gt;</text></symbol><symbol id="16"><text x="2.004" y="1.67" class="g">help</text><text x="7.014" y="1.67" class="g">(h)</text><text x="33.066" y="1.67" class="g">-</text></symbol><symbol id="17"><text x="2.004" y="1.67" class="g">version</text><text x="10.02" y="1.67" class="g">(v)</text><text x="33.066" y="1.67" class="g">Output</text><text x="40.08" y="1.67" class="g">the</text><text x="44.088" y="1.67" class="g">version</text><text x="52.104" y="1.67" class="g">number</text></symbol><symbol id="18"><text y="1.67" class="j">❯</text><text x="2.004" y="1.67" class="l">ethkit</text><text x="9.018" y="1.67" class="g">sig</text><text x="13.026" y="1.67" class="m">&apos;transfer(address</text><text x="31.062" y="1.67" class="m">a,</text><text x="36.072" y="1.67" class="m">uint</text><text x="41.082" y="1.67" class="m">b)&apos;</text></symbol><symbol id="19"><text y="1.67" class="g">0xa9059cbb</text><text x="11.022" y="1.67" class="g">&lt;=</text><text x="14.028" y="1.67" class="g">transfer(address,uint256)</text></symbol><symbol id="20"><text y="1.67" class="j">❯</text><text x="2.004" y="1.67" class="l">ethkit</text><text x="9.018" y="1.67" class="g">uniout</text><text x="16.032" y="1.67" class="g">100</text><text x="20.04" y="1.67" class="g">100</text><text x="24.048" y="1.67" class="g">100</text></symbol><symbol id="21"><text y="1.67" class="g">out:</text><text x="5.01" y="1.67" class="g">49.9248873309965</text><text x="22.044" y="1.67" class="g">reverseIn:</text><text x="33.066" y="1.67" class="g">200</text><text x="37.074" y="1.67" class="g">reserveOut:</text><text x="49.098" y="1.67" class="g">50.0751126690035</text></symbol><symbol id="a"><path fill="transparent" d="M0 0h92v33H0z"/></symbol><symbol id="b"><path fill="#6f7683" d="M0 0h1.102v2.171H0z"/></symbol></defs><path class="a" d="M0 0h92v71.643H0z"/><g style="animation-duration:21.748621s;animation-iteration-count:infinite;animation-name:p;animation-timing-function:steps(1,end)"><svg width="6256"><svg><use xlink:href="#a"/><use xlink:href="#b" x="-.004"/></svg><svg x="92"><use xlink:href="#a"/><use xlink:href="#b" x="-.004"/></svg><svg x="184"><use xlink:href="#a"/><use xlink:href="#b" x="-.004"/></svg><svg x="276"><use xlink:href="#a"/><use xlink:href="#b" x="1.996" y="4.317"/><use xlink:href="#1" y="2.171"/><use xlink:href="#2" y="4.342"/></svg><svg x="368"><use xlink:href="#a"/><use xlink:href="#b" x="1.996" y="4.317"/><use xlink:href="#1" y="2.171"/><use xlink:href="#2" y="4.342"/></svg><svg x="460"><use xlink:href="#a"/><use xlink:href="#b" x="1.996" y="4.317"/><use xlink:href="#1" y="2.171"/><use xlink:href="#2" y="4.342"/></svg><svg x="552"><use xlink:href="#a"/><use xlink:href="#b" x="2.996" y="4.317"/><use xlink:href="#1" y="2.171"/><text y="6.012" class="j">❯</text><text x="2.004" y="6.012" class="g">e</text></svg><svg x="644"><use xlink:href="#a"/><use xlink:href="#b" x="3.996" y="4.317"/><use xlink:href="#1" y="2.171"/><text y="6.012" class="j">❯</text><text x="2.004" y="6.012" class="i">eh</text></svg><svg x="736"><use xlink:href="#a"/><use xlink:href="#b" x="2.996" y="4.317"/><use xlink:href="#1" y="2.171"/><text y="6.012" class="j">❯</text><text x="2.004" y="6.012" class="i">e</text><text x="3.006" y="6.012" class="k">thkit</text><text x="9.018" y="6.012" class="k">sig</text><text x="13.026" y="6.012" class="k">&apos;transfer(address</text><text x="31.062" y="6.012" class="k">a,</text><text x="36.072" y="6.012" class="k">uint</text><text x="41.082" y="6.012" class="k">b)&apos;</text></svg><svg x="828"><use xlink:href="#a"/><use xlink:href="#b" x="3.996" y="4.317"/><use xlink:href="#1" y="2.171"/><use xlink:href="#3" y="4.342"/></svg><svg x="920"><use xlink:href="#a"/><use xlink:href="#b" x="4.996" y="4.317"/><use xlink:href="#1" y="2.171"/><use xlink:href="#4" y="4.342"/></svg><svg x="1012"><use xlink:href="#a"/><use xlink:href="#b" x="5.996" y="4.317"/><use xlink:href="#1" y="2.171"/><use xlink:href="#5" y="4.342"/></svg><svg x="1104"><use xlink:href="#a"/><use xlink:href="#b" x="6.996" y="4.317"/><use xlink:href="#1" y="2.171"/><use xlink:href="#6" y="4.342"/></svg><svg x="1196"><use xlink:href="#a"/><use xlink:href="#b" x="7.996" y="4.317"/><use xlink:href="#1" y="2.171"/><use xlink:href="#7" y="4.342"/></svg><svg x="1288"><use xlink:href="#a"/><use xlink:href="#b" x="7.996" y="4.317"/><use xlink:href="#1" y="2.171"/><use xlink:href="#8" y="4.342"/></svg><svg x="1380"><use xlink:href="#a"/><use xlink:href="#b" x="7.996" y="4.317"/><use xlink:href="#1" y="2.171"/><use xlink:href="#8" y="4.342"/></svg><svg x="1472"><use xlink:href="#a"/><use xlink:href="#b" x="-.004" y="6.488"/><use xlink:href="#1" y="2.171"/><use xlink:href="#8" y="4.342"/></svg><svg x="1564"><use xlink:href="#a"/><use xlink:href="#b" x="-.004" y="6.488"/><use xlink:href="#1" y="2.171"/><use xlink:href="#8" y="4.342"/></svg><svg x="1656"><use xlink:href="#a"/><use xlink:href="#b" x="-.004" y="8.659"/><use xlink:href="#1" y="2.171"/><use xlink:href="#8" y="4.342"/><use xlink:href="#9" y="6.513"/></svg><svg x="1748"><use xlink:href="#a"/><use xlink:href="#b" x="-.004" y="10.83"/><use xlink:href="#1" y="2.171"/><use xlink:href="#8" y="4.342"/><use xlink:href="#9" y="6.513"/></svg><svg x="1840"><use xlink:href="#a"/><use xlink:href="#b" x="-.004" y="28.198"/><use xlink:href="#1" y="2.171"/><use xlink:href="#8" y="4.342"/><use xlink:href="#9" y="6.513"/><use xlink:href="#10" y="10.855"/><use xlink:href="#11" y="13.026"/><use xlink:href="#12" y="15.197"/><use xlink:href="#13" y="17.368"/><use xlink:href="#14" y="19.539"/><use xlink:href="#15" y="21.71"/><use xlink:href="#16" y="23.881"/><use xlink:href="#17" y="26.052"/></svg><svg x="1932"><use xlink:href="#a"/><use xlink:href="#b" x="-.004" y="28.198"/><use xlink:href="#1" y="2.171"/><use xlink:href="#8" y="4.342"/><use xlink:href="#9" y="6.513"/><use xlink:href="#10" y="10.855"/><use xlink:href="#11" y="13.026"/><use xlink:href="#12" y="15.197"/><use xlink:href="#13" y="17.368"/><use xlink:href="#14" y="19.539"/><use xlink:href="#15" y="21.71"/><use xlink:href="#16" y="23.881"/><use xlink:href="#17" y="26.052"/></svg><svg x="2024"><use xlink:href="#a"/><use xlink:href="#b" x="-.004" y="28.198"/><use xlink:href="#1" y="2.171"/><use xlink:href="#8" y="4.342"/><use xlink:href="#9" y="6.513"/><use xlink:href="#10" y="10.855"/><use xlink:href="#11" y="13.026"/><use xlink:href="#12" y="15.197"/><use xlink:href="#13" y="17.368"/><use xlink:href="#14" y="19.539"/><use xlink:href="#15" y="21.71"/><use xlink:href="#16" y="23.881"/><use xlink:href="#17" y="26.052"/></svg><svg x="2116"><use xlink:href="#a"/><use xlink:href="#b" x="1.996" y="32.54"/><use xlink:href="#1" y="2.171"/><use xlink:href="#8" y="4.342"/><use xlink:href="#9" y="6.513"/><use xlink:href="#10" y="10.855"/><use xlink:href="#11" y="13.026"/><use xlink:href="#12" y="15.197"/><use xlink:href="#13" y="17.368"/><use xlink:href="#14" y="19.539"/><use xlink:href="#15" y="21.71"/><use xlink:href="#16" y="23.881"/><use xlink:href="#17" y="26.052"/><use xlink:href="#1" y="30.394"/><use xlink:href="#2" y="32.565"/></svg><svg x="2208"><use xlink:href="#a"/><use xlink:href="#b" x="1.996" y="32.54"/><use xlink:href="#1" y="2.171"/><use xlink:href="#8" y="4.342"/><use xlink:href="#9" y="6.513"/><use xlink:href="#10" y="10.855"/><use xlink:href="#11" y="13.026"/><use xlink:href="#12" y="15.197"/><use xlink:href="#13" y="17.368"/><use xlink:href="#14" y="19.539"/><use xlink:href="#15" y="21.71"/><use xlink:href="#16" y="23.881"/><use xlink:href="#17" y="26.052"/><use xlink:href="#1" y="30.394"/><use xlink:href="#2" y="32.565"/></svg><svg x="2300"><use xlink:href="#a"/><use xlink:href="#b" x="1.996" y="32.54"/><use xlink:href="#1" y="2.171"/><use xlink:href="#8" y="4.342"/><use xlink:href="#9" y="6.513"/><use xlink:href="#10" y="10.855"/><use xlink:href="#11" y="13.026"/><use xlink:href="#12" y="15.197"/><use xlink:href="#13" y="17.368"/><use xlink:href="#14" y="19.539"/><use xlink:href="#15" y="21.71"/><use xlink:href="#16" y="23.881"/><use xlink:href="#17" y="26.052"/><use xlink:href="#1" y="30.394"/><use xlink:href="#2" y="32.565"/></svg><svg x="2392"><use xlink:href="#a"/><use xlink:href="#b" x="2.996" y="32.54"/><use xlink:href="#1" y="2.171"/><use xlink:href="#8" y="4.342"/><use xlink:href="#9" y="6.513"/><use xlink:href="#10" y="10.855"/><use xlink:href="#11" y="13.026"/><use xlink:href="#12" y="15.197"/><use xlink:href="#13" y="17.368"/><use xlink:href="#14" y="19.539"/><use xlink:href="#15" y="21.71"/><use xlink:href="#16" y="23.881"/><use xlink:href="#17" y="26.052"/><use xlink:href="#1" y="30.394"/><text y="34.235" class="j">❯</text><text x="2.004" y="34.235" class="i">e</text><text x="3.006" y="34.235" class="k">thkit</text></svg><svg x="2484"><use xlink:href="#a"/><use xlink:href="#b" x="3.996" y="32.54"/><use xlink:href="#1" y="2.171"/><use xlink:href="#8" y="4.342"/><use xlink:href="#9" y="6.513"/><use xlink:href="#10" y="10.855"/><use xlink:href="#11" y="13.026"/><use xlink:href="#12" y="15.197"/><use xlink:href="#13" y="17.368"/><use xlink:href="#14" y="19.539"/><use xlink:href="#15" y="21.71"/><use xlink:href="#16" y="23.881"/><use xlink:href="#17" y="26.052"/><use xlink:href="#1" y="30.394"/><text y="34.235" class="j">❯</text><text x="2.004" y="34.235" class="i">et</text><text x="4.008" y="34.235" class="k">hkit</text></svg><svg x="2576"><use xlink:href="#a"/><use xlink:href="#b" x="4.996" y="32.54"/><use xlink:href="#1" y="2.171"/><use xlink:href="#8" y="4.342"/><use xlink:href="#9" y="6.513"/><use xlink:href="#10" y="10.855"/><use xlink:href="#11" y="13.026"/><use xlink:href="#12" y="15.197"/><use xlink:href="#13" y="17.368"/><use xlink:href="#14" y="19.539"/><use xlink:href="#15" y="21.71"/><use xlink:href="#16" y="23.881"/><use xlink:href="#17" y="26.052"/><use xlink:href="#1" y="30.394"/><text y="34.235" class="j">❯</text><text x="2.004" y="34.235" class="i">eth</text><text x="5.01" y="34.235" class="k">kit</text></svg><svg x="2668"><use xlink:href="#a"/><use xlink:href="#b" x="5.996" y="32.54"/><use xlink:href="#1" y="2.171"/><use xlink:href="#8" y="4.342"/><use xlink:href="#9" y="6.513"/><use xlink:href="#10" y="10.855"/><use xlink:href="#11" y="13.026"/><use xlink:href="#12" y="15.197"/><use xlink:href="#13" y="17.368"/><use xlink:href="#14" y="19.539"/><use xlink:href="#15" y="21.71"/><use xlink:href="#16" y="23.881"/><use xlink:href="#17" y="26.052"/><use xlink:href="#1" y="30.394"/><text y="34.235" class="j">❯</text><text x="2.004" y="34.235" class="i">ethk</text><text x="6.012" y="34.235" class="k">it</text></svg><svg x="2760"><use xlink:href="#a"/><use xlink:href="#b" x="6.996" y="32.54"/><use xlink:href="#1" y="2.171"/><use xlink:href="#8" y="4.342"/><use xlink:href="#9" y="6.513"/><use xlink:href="#10" y="10.855"/><use xlink:href="#11" y="13.026"/><use xlink:href="#12" y="15.197"/><use xlink:href="#13" y="17.368"/><use xlink:href="#14" y="19.539"/><use xlink:href="#15" y="21.71"/><use xlink:href="#16" y="23.881"/><use xlink:href="#17" y="26.052"/><use xlink:href="#1" y="30.394"/><text y="34.235" class="j">❯</text><text x="2.004" y="34.235" class="i">ethki</text><text x="7.014" y="34.235" class="k">t</text></svg><svg x="2852"><use xlink:href="#a"/><use xlink:href="#b" x="7.996" y="32.54"/><use xlink:href="#1" y="2.171"/><use xlink:href="#8" y="4.342"/><use xlink:href="#9" y="6.513"/><use xlink:href="#10" y="10.855"/><use xlink:href="#11" y="13.026"/><use xlink:href="#12" y="15.197"/><use xlink:href="#13" y="17.368"/><use xlink:href="#14" y="19.539"/><use xlink:href="#15" y="21.71"/><use xlink:href="#16" y="23.881"/><use xlink:href="#17" y="26.052"/><use xlink:href="#1" y="30.394"/><use xlink:href="#8" y="32.565"/></svg><svg x="2944"><use xlink:href="#a"/><use xlink:href="#b" x="8.996" y="32.54"/><use xlink:href="#1" y="2.171"/><use xlink:href="#8" y="4.342"/><use xlink:href="#9" y="6.513"/><use xlink:href="#10" y="10.855"/><use xlink:href="#11" y="13.026"/><use xlink:href="#12" y="15.197"/><use xlink:href="#13" y="17.368"/><use xlink:href="#14" y="19.539"/><use xlink:href="#15" y="21.71"/><use xlink:href="#16" y="23.881"/><use xlink:href="#17" y="26.052"/><use xlink:href="#1" y="30.394"/><use xlink:href="#7" y="32.565"/></svg><svg x="3036"><use xlink:href="#a"/><use xlink:href="#b" x="9.996" y="32.54"/><use xlink:href="#1" y="2.171"/><use xlink:href="#8" y="4.342"/><use xlink:href="#9" y="6.513"/><use xlink:href="#10" y="10.855"/><use xlink:href="#11" y="13.026"/><use xlink:href="#12" y="15.197"/><use xlink:href="#13" y="17.368"/><use xlink:href="#14" y="19.539"/><use xlink:href="#15" y="21.71"/><use xlink:href="#16" y="23.881"/><use xlink:href="#17" y="26.052"/><use xlink:href="#1" y="30.394"/><text y="34.235" class="j">❯</text><text x="2.004" y="34.235" class="l">ethkit</text><text x="9.018" y="34.235" class="r">s</text><text x="10.02" y="34.235" class="k">ig</text><text x="13.026" y="34.235" class="k">&apos;transfer(address</text><text x="31.062" y="34.235" class="k">a,</text><text x="36.072" y="34.235" class="k">uint</text><text x="41.082" y="34.235" class="k">b)&apos;</text></svg><svg x="3128"><use xlink:href="#a"/><use xlink:href="#b" x="10.996" y="32.54"/><use xlink:href="#1" y="2.171"/><use xlink:href="#8" y="4.342"/><use xlink:href="#9" y="6.513"/><use xlink:href="#10" y="10.855"/><use xlink:href="#11" y="13.026"/><use xlink:href="#12" y="15.197"/><use xlink:href="#13" y="17.368"/><use xlink:href="#14" y="19.539"/><use xlink:href="#15" y="21.71"/><use xlink:href="#16" y="23.881"/><use xlink:href="#17" y="26.052"/><use xlink:href="#1" y="30.394"/><text y="34.235" class="j">❯</text><text x="2.004" y="34.235" class="l">ethkit</text><text x="9.018" y="34.235" class="g">si</text><text x="11.022" y="34.235" class="k">g</text><text x="13.026" y="34.235" class="k">&apos;transfer(address</text><text x="31.062" y="34.235" class="k">a,</text><text x="36.072" y="34.235" class="k">uint</text><text x="41.082" y="34.235" class="k">b)&apos;</text></svg><svg x="3220"><use xlink:href="#a"/><use xlink:href="#b" x="11.996" y="32.54"/><use xlink:href="#1" y="2.171"/><use xlink:href="#8" y="4.342"/><use xlink:href="#9" y="6.513"/><use xlink:href="#10" y="10.855"/><use xlink:href="#11" y="13.026"/><use xlink:href="#12" y="15.197"/><use xlink:href="#13" y="17.368"/><use xlink:href="#14" y="19.539"/><use xlink:href="#15" y="21.71"/><use xlink:href="#16" y="23.881"/><use xlink:href="#17" y="26.052"/><use xlink:href="#1" y="30.394"/><text y="34.235" class="j">❯</text><text x="2.004" y="34.235" class="l">ethkit</text><text x="9.018" y="34.235" class="g">sig</text><text x="13.026" y="34.235" class="k">&apos;transfer(address</text><text x="31.062" y="34.235" class="k">a,</text><text x="36.072" y="34.235" class="k">uint</text><text x="41.082" y="34.235" class="k">b)&apos;</text></svg><svg x="3312"><use xlink:href="#a"/><use xlink:href="#b" x="43.996" y="32.54"/><use xlink:href="#1" y="2.171"/><use xlink:href="#8" y="4.342"/><use xlink:href="#9" y="6.513"/><use xlink:href="#10" y="10.855"/><use xlink:href="#11" y="13.026"/><use xlink:href="#12" y="15.197"/><use xlink:href="#13" y="17.368"/><use xlink:href="#14" y="19.539"/><use xlink:href="#15" y="21.71"/><use xlink:href="#16" y="23.881"/><use xlink:href="#17" y="26.052"/><use xlink:href="#1" y="30.394"/><use xlink:href="#18" y="32.565"/></svg><svg x="3404"><use xlink:href="#a"/><use xlink:href="#b" x="43.996" y="32.54"/><use xlink:href="#1" y="2.171"/><use xlink:href="#8" y="4.342"/><use xlink:href="#9" y="6.513"/><use xlink:href="#10" y="10.855"/><use xlink:href="#11" y="13.026"/><use xlink:href="#12" y="15.197"/><use xlink:href="#13" y="17.368"/><use xlink:href="#14" y="19.539"/><use xlink:href="#15" y="21.71"/><use xlink:href="#16" y="23.881"/><use xlink:href="#17" y="26.052"/><use xlink:href="#1" y="30.394"/><use xlink:href="#18" y="32.565"/></svg><svg x="3496"><use xlink:href="#a"/><use xlink:href="#b" x="-.004" y="34.711"/><use xlink:href="#1" y="2.171"/><use xlink:href="#8" y="4.342"/><use xlink:href="#9" y="6.513"/><use xlink:href="#10" y="10.855"/><use xlink:href="#11" y="13.026"/><use xlink:href="#12" y="15.197"/><use xlink:href="#13" y="17.368"/><use xlink:href="#14" y="19.539"/><use xlink:href="#15" y="21.71"/><use xlink:href="#16" y="23.881"/><use xlink:href="#17" y="26.052"/><use xlink:href="#1" y="30.394"/><use xlink:href="#18" y="32.565"/></svg><svg x="3588"><use xlink:href="#a"/><use xlink:href="#b" x="-.004" y="34.711"/><use xlink:href="#1" y="2.171"/><use xlink:href="#8" y="4.342"/><use xlink:href="#9" y="6.513"/><use xlink:href="#10" y="10.855"/><use xlink:href="#11" y="13.026"/><use xlink:href="#12" y="15.197"/><use xlink:href="#13" y="17.368"/><use xlink:href="#14" y="19.539"/><use xlink:href="#15" y="21.71"/><use xlink:href="#16" y="23.881"/><use xlink:href="#17" y="26.052"/><use xlink:href="#1" y="30.394"/><use xlink:href="#18" y="32.565"/></svg><svg x="3680"><use xlink:href="#a"/><use xlink:href="#b" x="-.004" y="36.882"/><use xlink:href="#1" y="2.171"/><use xlink:href="#8" y="4.342"/><use xlink:href="#9" y="6.513"/><use xlink:href="#10" y="10.855"/><use xlink:href="#11" y="13.026"/><use xlink:href="#12" y="15.197"/><use xlink:href="#13" y="17.368"/><use xlink:href="#14" y="19.539"/><use xlink:href="#15" y="21.71"/><use xlink:href="#16" y="23.881"/><use xlink:href="#17" y="26.052"/><use xlink:href="#1" y="30.394"/><use xlink:href="#18" y="32.565"/><use xlink:href="#19" y="34.736"/></svg><svg x="3772"><use xlink:href="#a"/><use xlink:href="#b" x="-.004" y="36.882"/><use xlink:href="#1" y="2.171"/><use xlink:href="#8" y="4.342"/><use xlink:href="#9" y="6.513"/><use xlink:href="#10" y="10.855"/><use xlink:href="#11" y="13.026"/><use xlink:href="#12" y="15.197"/><use xlink:href="#13" y="17.368"/><use xlink:href="#14" y="19.539"/><use xlink:href="#15" y="21.71"/><use xlink:href="#16" y="23.881"/><use xlink:href="#17" y="26.052"/><use xlink:href="#1" y="30.394"/><use xlink:href="#18" y="32.565"/><use xlink:href="#19" y="34.736"/></svg><svg x="3864"><use xlink:href="#a"/><use xlink:href="#b" x="-.004" y="36.882"/><use xlink:href="#1" y="2.171"/><use xlink:href="#8" y="4.342"/><use xlink:href="#9" y="6.513"/><use xlink:href="#10" y="10.855"/><use xlink:href="#11" y="13.026"/><use xlink:href="#12" y="15.197"/><use xlink:href="#13" y="17.368"/><use xlink:href="#14" y="19.539"/><use xlink:href="#15" y="21.71"/><use xlink:href="#16" y="23.881"/><use xlink:href="#17" y="26.052"/><use xlink:href="#1" y="30.394"/><use xlink:href="#18" y="32.565"/><use xlink:href="#19" y="34.736"/></svg><svg x="3956"><use xlink:href="#a"/><use xlink:href="#b" x="1.996" y="41.224"/><use xlink:href="#1" y="2.171"/><use xlink:href="#8" y="4.342"/><use xlink:href="#9" y="6.513"/><use xlink:href="#10" y="10.855"/><use xlink:href="#11" y="13.026"/><use xlink:href="#12" y="15.197"/><use xlink:href="#13" y="17.368"/><use xlink:href="#14" y="19.539"/><use xlink:href="#15" y="21.71"/><use xlink:href="#16" y="23.881"/><use xlink:href="#17" y="26.052"/><use xlink:href="#1" y="30.394"/><use xlink:href="#18" y="32.565"/><use xlink:href="#19" y="34.736"/><use xlink:href="#1" y="39.078"/><use xlink:href="#2" y="41.249"/></svg><svg x="4048"><use xlink:href="#a"/><use xlink:href="#b" x="1.996" y="41.224"/><use xlink:href="#1" y="2.171"/><use xlink:href="#8" y="4.342"/><use xlink:href="#9" y="6.513"/><use xlink:href="#10" y="10.855"/><use xlink:href="#11" y="13.026"/><use xlink:href="#12" y="15.197"/><use xlink:href="#13" y="17.368"/><use xlink:href="#14" y="19.539"/><use xlink:href="#15" y="21.71"/><use xlink:href="#16" y="23.881"/><use xlink:href="#17" y="26.052"/><use xlink:href="#1" y="30.394"/><use xlink:href="#18" y="32.565"/><use xlink:href="#19" y="34.736"/><use xlink:href="#1" y="39.078"/><use xlink:href="#2" y="41.249"/></svg><svg x="4140"><use xlink:href="#a"/><use xlink:href="#b" x="1.996" y="41.224"/><use xlink:href="#1" y="2.171"/><use xlink:href="#8" y="4.342"/><use xlink:href="#9" y="6.513"/><use xlink:href="#10" y="10.855"/><use xlink:href="#11" y="13.026"/><use xlink:href="#12" y="15.197"/><use xlink:href="#13" y="17.368"/><use xlink:href="#14" y="19.539"/><use xlink:href="#15" y="21.71"/><use xlink:href="#16" y="23.881"/><use xlink:href="#17" y="26.052"/><use xlink:href="#1" y="30.394"/><use xlink:href="#18" y="32.565"/><use xlink:href="#19" y="34.736"/><use xlink:href="#1" y="39.078"/><use xlink:href="#2" y="41.249"/></svg><svg x="4232"><use xlink:href="#a"/><use xlink:href="#b" x="2.996" y="41.224"/><use xlink:href="#1" y="2.171"/><use xlink:href="#8" y="4.342"/><use xlink:href="#9" y="6.513"/><use xlink:href="#10" y="10.855"/><use xlink:href="#11" y="13.026"/><use xlink:href="#12" y="15.197"/><use xlink:href="#13" y="17.368"/><use xlink:href="#14" y="19.539"/><use xlink:href="#15" y="21.71"/><use xlink:href="#16" y="23.881"/><use xlink:href="#17" y="26.052"/><use xlink:href="#1" y="30.394"/><use xlink:href="#18" y="32.565"/><use xlink:href="#19" y="34.736"/><use xlink:href="#1" y="39.078"/><text y="42.919" class="j">❯</text><text x="2.004" y="42.919" class="r">s</text><text x="3.006" y="42.919" class="k">udo</text><text x="7.014" y="42.919" class="k">ifconfig</text><text x="16.032" y="42.919" class="k">en0</text><text x="20.04" y="42.919" class="k">192.168.1.9</text></svg><svg x="4324"><use xlink:href="#a"/><use xlink:href="#b" x="1.996" y="41.224"/><use xlink:href="#1" y="2.171"/><use xlink:href="#8" y="4.342"/><use xlink:href="#9" y="6.513"/><use xlink:href="#10" y="10.855"/><use xlink:href="#11" y="13.026"/><use xlink:href="#12" y="15.197"/><use xlink:href="#13" y="17.368"/><use xlink:href="#14" y="19.539"/><use xlink:href="#15" y="21.71"/><use xlink:href="#16" y="23.881"/><use xlink:href="#17" y="26.052"/><use xlink:href="#1" y="30.394"/><use xlink:href="#18" y="32.565"/><use xlink:href="#19" y="34.736"/><use xlink:href="#1" y="39.078"/><text y="42.919" class="j">❯</text><text x="2.004" y="42.919" class="k">udo</text><text x="6.012" y="42.919" class="k">ifconfig</text><text x="15.03" y="42.919" class="k">en0</text><text x="19.038" y="42.919" class="k">192.168.1.9</text></svg><svg x="4416"><use xlink:href="#a"/><use xlink:href="#b" x="2.996" y="41.224"/><use xlink:href="#1" y="2.171"/><use xlink:href="#8" y="4.342"/><use xlink:href="#9" y="6.513"/><use xlink:href="#10" y="10.855"/><use xlink:href="#11" y="13.026"/><use xlink:href="#12" y="15.197"/><use xlink:href="#13" y="17.368"/><use xlink:href="#14" y="19.539"/><use xlink:href="#15" y="21.71"/><use xlink:href="#16" y="23.881"/><use xlink:href="#17" y="26.052"/><use xlink:href="#1" y="30.394"/><use xlink:href="#18" y="32.565"/><use xlink:href="#19" y="34.736"/><use xlink:href="#1" y="39.078"/><text y="42.919" class="j">❯</text><text x="2.004" y="42.919" class="g">e</text><text x="3.006" y="42.919" class="k">udo</text><text x="7.014" y="42.919" class="k">ifconfig</text><text x="16.032" y="42.919" class="k">en0</text><text x="20.04" y="42.919" class="k">192.168.1.9</text></svg><svg x="4508"><use xlink:href="#a"/><use xlink:href="#b" x="3.996" y="41.224"/><use xlink:href="#1" y="2.171"/><use xlink:href="#8" y="4.342"/><use xlink:href="#9" y="6.513"/><use xlink:href="#10" y="10.855"/><use xlink:href="#11" y="13.026"/><use xlink:href="#12" y="15.197"/><use xlink:href="#13" y="17.368"/><use xlink:href="#14" y="19.539"/><use xlink:href="#15" y="21.71"/><use xlink:href="#16" y="23.881"/><use xlink:href="#17" y="26.052"/><use xlink:href="#1" y="30.394"/><use xlink:href="#18" y="32.565"/><use xlink:href="#19" y="34.736"/><use xlink:href="#1" y="39.078"/><use xlink:href="#3" y="41.249"/></svg><svg x="4600"><use xlink:href="#a"/><use xlink:href="#b" x="4.996" y="41.224"/><use xlink:href="#1" y="2.171"/><use xlink:href="#8" y="4.342"/><use xlink:href="#9" y="6.513"/><use xlink:href="#10" y="10.855"/><use xlink:href="#11" y="13.026"/><use xlink:href="#12" y="15.197"/><use xlink:href="#13" y="17.368"/><use xlink:href="#14" y="19.539"/><use xlink:href="#15" y="21.71"/><use xlink:href="#16" y="23.881"/><use xlink:href="#17" y="26.052"/><use xlink:href="#1" y="30.394"/><use xlink:href="#18" y="32.565"/><use xlink:href="#19" y="34.736"/><use xlink:href="#1" y="39.078"/><use xlink:href="#4" y="41.249"/></svg><svg x="4692"><use xlink:href="#a"/><use xlink:href="#b" x="5.996" y="41.224"/><use xlink:href="#1" y="2.171"/><use xlink:href="#8" y="4.342"/><use xlink:href="#9" y="6.513"/><use xlink:href="#10" y="10.855"/><use xlink:href="#11" y="13.026"/><use xlink:href="#12" y="15.197"/><use xlink:href="#13" y="17.368"/><use xlink:href="#14" y="19.539"/><use xlink:href="#15" y="21.71"/><use xlink:href="#16" y="23.881"/><use xlink:href="#17" y="26.052"/><use xlink:href="#1" y="30.394"/><use xlink:href="#18" y="32.565"/><use xlink:href="#19" y="34.736"/><use xlink:href="#1" y="39.078"/><use xlink:href="#5" y="41.249"/></svg><svg x="4784"><use xlink:href="#a"/><use xlink:href="#b" x="6.996" y="41.224"/><use xlink:href="#1" y="2.171"/><use xlink:href="#8" y="4.342"/><use xlink:href="#9" y="6.513"/><use xlink:href="#10" y="10.855"/><use xlink:href="#11" y="13.026"/><use xlink:href="#12" y="15.197"/><use xlink:href="#13" y="17.368"/><use xlink:href="#14" y="19.539"/><use xlink:href="#15" y="21.71"/><use xlink:href="#16" y="23.881"/><use xlink:href="#17" y="26.052"/><use xlink:href="#1" y="30.394"/><use xlink:href="#18" y="32.565"/><use xlink:href="#19" y="34.736"/><use xlink:href="#1" y="39.078"/><use xlink:href="#6" y="41.249"/></svg><svg x="4876"><use xlink:href="#a"/><use xlink:href="#b" x="7.996" y="41.224"/><use xlink:href="#1" y="2.171"/><use xlink:href="#8" y="4.342"/><use xlink:href="#9" y="6.513"/><use xlink:href="#10" y="10.855"/><use xlink:href="#11" y="13.026"/><use xlink:href="#12" y="15.197"/><use xlink:href="#13" y="17.368"/><use xlink:href="#14" y="19.539"/><use xlink:href="#15" y="21.71"/><use xlink:href="#16" y="23.881"/><use xlink:href="#17" y="26.052"/><use xlink:href="#1" y="30.394"/><use xlink:href="#18" y="32.565"/><use xlink:href="#19" y="34.736"/><use xlink:href="#1" y="39.078"/><use xlink:href="#7" y="41.249"/></svg><svg x="4968"><use xlink:href="#a"/><use xlink:href="#b" x="8.996" y="41.224"/><use xlink:href="#1" y="2.171"/><use xlink:href="#8" y="4.342"/><use xlink:href="#9" y="6.513"/><use xlink:href="#10" y="10.855"/><use xlink:href="#11" y="13.026"/><use xlink:href="#12" y="15.197"/><use xlink:href="#13" y="17.368"/><use xlink:href="#14" y="19.539"/><use xlink:href="#15" y="21.71"/><use xlink:href="#16" y="23.881"/><use xlink:href="#17" y="26.052"/><use xlink:href="#1" y="30.394"/><use xlink:href="#18" y="32.565"/><use xlink:href="#19" y="34.736"/><use xlink:href="#1" y="39.078"/><use xlink:href="#7" y="41.249"/></svg><svg x="5060"><use xlink:href="#a"/><use xlink:href="#b" x="9.996" y="41.224"/><use xlink:href="#1" y="2.171"/><use xlink:href="#8" y="4.342"/><use xlink:href="#9" y="6.513"/><use xlink:href="#10" y="10.855"/><use xlink:href="#11" y="13.026"/><use xlink:href="#12" y="15.197"/><use xlink:href="#13" y="17.368"/><use xlink:href="#14" y="19.539"/><use xlink:href="#15" y="21.71"/><use xlink:href="#16" y="23.881"/><use xlink:href="#17" y="26.052"/><use xlink:href="#1" y="30.394"/><use xlink:href="#18" y="32.565"/><use xlink:href="#19" y="34.736"/><use xlink:href="#1" y="39.078"/><text y="42.919" class="j">❯</text><text x="2.004" y="42.919" class="l">ethkit</text><text x="9.018" y="42.919" class="g">u</text><text x="10.02" y="42.919" class="k">niout</text><text x="16.032" y="42.919" class="k">100</text><text x="20.04" y="42.919" class="k">100</text><text x="24.048" y="42.919" class="k">100</text></svg><svg x="5152"><use xlink:href="#a"/><use xlink:href="#b" x="10.996" y="41.224"/><use xlink:href="#1" y="2.171"/><use xlink:href="#8" y="4.342"/><use xlink:href="#9" y="6.513"/><use xlink:href="#10" y="10.855"/><use xlink:href="#11" y="13.026"/><use xlink:href="#12" y="15.197"/><use xlink:href="#13" y="17.368"/><use xlink:href="#14" y="19.539"/><use xlink:href="#15" y="21.71"/><use xlink:href="#16" y="23.881"/><use xlink:href="#17" y="26.052"/><use xlink:href="#1" y="30.394"/><use xlink:href="#18" y="32.565"/><use xlink:href="#19" y="34.736"/><use xlink:href="#1" y="39.078"/><text y="42.919" class="j">❯</text><text x="2.004" y="42.919" class="l">ethkit</text><text x="9.018" y="42.919" class="g">un</text><text x="11.022" y="42.919" class="k">iout</text><text x="16.032" y="42.919" class="k">100</text><text x="20.04" y="42.919" class="k">100</text><text x="24.048" y="42.919" class="k">100</text></svg><svg x="5244"><use xlink:href="#a"/><use xlink:href="#b" x="26.996" y="41.224"/><use xlink:href="#1" y="2.171"/><use xlink:href="#8" y="4.342"/><use xlink:href="#9" y="6.513"/><use xlink:href="#10" y="10.855"/><use xlink:href="#11" y="13.026"/><use xlink:href="#12" y="15.197"/><use xlink:href="#13" y="17.368"/><use xlink:href="#14" y="19.539"/><use xlink:href="#15" y="21.71"/><use xlink:href="#16" y="23.881"/><use xlink:href="#17" y="26.052"/><use xlink:href="#1" y="30.394"/><use xlink:href="#18" y="32.565"/><use xlink:href="#19" y="34.736"/><use xlink:href="#1" y="39.078"/><use xlink:href="#20" y="41.249"/></svg><svg x="5336"><use xlink:href="#a"/><use xlink:href="#b" x="26.996" y="41.224"/><use xlink:href="#1" y="2.171"/><use xlink:href="#8" y="4.342"/><use xlink:href="#9" y="6.513"/><use xlink:href="#10" y="10.855"/><use xlink:href="#11" y="13.026"/><use xlink:href="#12" y="15.197"/><use xlink:href="#13" y="17.368"/><use xlink:href="#14" y="19.539"/><use xlink:href="#15" y="21.71"/><use xlink:href="#16" y="23.881"/><use xlink:href="#17" y="26.052"/><use xlink:href="#1" y="30.394"/><use xlink:href="#18" y="32.565"/><use xlink:href="#19" y="34.736"/><use xlink:href="#1" y="39.078"/><use xlink:href="#20" y="41.249"/></svg><svg x="5428"><use xlink:href="#a"/><use xlink:href="#b" x="-.004" y="43.395"/><use xlink:href="#1" y="2.171"/><use xlink:href="#8" y="4.342"/><use xlink:href="#9" y="6.513"/><use xlink:href="#10" y="10.855"/><use xlink:href="#11" y="13.026"/><use xlink:href="#12" y="15.197"/><use xlink:href="#13" y="17.368"/><use xlink:href="#14" y="19.539"/><use xlink:href="#15" y="21.71"/><use xlink:href="#16" y="23.881"/><use xlink:href="#17" y="26.052"/><use xlink:href="#1" y="30.394"/><use xlink:href="#18" y="32.565"/><use xlink:href="#19" y="34.736"/><use xlink:href="#1" y="39.078"/><use xlink:href="#20" y="41.249"/></svg><svg x="5520"><use xlink:href="#a"/><use xlink:href="#b" x="-.004" y="43.395"/><use xlink:href="#1" y="2.171"/><use xlink:href="#8" y="4.342"/><use xlink:href="#9" y="6.513"/><use xlink:href="#10" y="10.855"/><use xlink:href="#11" y="13.026"/><use xlink:href="#12" y="15.197"/><use xlink:href="#13" y="17.368"/><use xlink:href="#14" y="19.539"/><use xlink:href="#15" y="21.71"/><use xlink:href="#16" y="23.881"/><use xlink:href="#17" y="26.052"/><use xlink:href="#1" y="30.394"/><use xlink:href="#18" y="32.565"/><use xlink:href="#19" y="34.736"/><use xlink:href="#1" y="39.078"/><use xlink:href="#20" y="41.249"/></svg><svg x="5612"><use xlink:href="#a"/><use xlink:href="#b" x="-.004" y="45.566"/><use xlink:href="#1" y="2.171"/><use xlink:href="#8" y="4.342"/><use xlink:href="#9" y="6.513"/><use xlink:href="#10" y="10.855"/><use xlink:href="#11" y="13.026"/><use xlink:href="#12" y="15.197"/><use xlink:href="#13" y="17.368"/><use xlink:href="#14" y="19.539"/><use xlink:href="#15" y="21.71"/><use xlink:href="#16" y="23.881"/><use xlink:href="#17" y="26.052"/><use xlink:href="#1" y="30.394"/><use xlink:href="#18" y="32.565"/><use xlink:href="#19" y="34.736"/><use xlink:href="#1" y="39.078"/><use xlink:href="#20" y="41.249"/><use xlink:href="#21" y="43.42"/></svg><svg x="5704"><use xlink:href="#a"/><use xlink:href="#b" x="-.004" y="45.566"/><use xlink:href="#1" y="2.171"/><use xlink:href="#8" y="4.342"/><use xlink:href="#9" y="6.513"/><use xlink:href="#10" y="10.855"/><use xlink:href="#11" y="13.026"/><use xlink:href="#12" y="15.197"/><use xlink:href="#13" y="17.368"/><use xlink:href="#14" y="19.539"/><use xlink:href="#15" y="21.71"/><use xlink:href="#16" y="23.881"/><use xlink:href="#17" y="26.052"/><use xlink:href="#1" y="30.394"/><use xlink:href="#18" y="32.565"/><use xlink:href="#19" y="34.736"/><use xlink:href="#1" y="39.078"/><use xlink:href="#20" y="41.249"/><use xlink:href="#21" y="43.42"/></svg><svg x="5796"><use xlink:href="#a"/><use xlink:href="#b" x="-.004" y="45.566"/><use xlink:href="#1" y="2.171"/><use xlink:href="#8" y="4.342"/><use xlink:href="#9" y="6.513"/><use xlink:href="#10" y="10.855"/><use xlink:href="#11" y="13.026"/><use xlink:href="#12" y="15.197"/><use xlink:href="#13" y="17.368"/><use xlink:href="#14" y="19.539"/><use xlink:href="#15" y="21.71"/><use xlink:href="#16" y="23.881"/><use xlink:href="#17" y="26.052"/><use xlink:href="#1" y="30.394"/><use xlink:href="#18" y="32.565"/><use xlink:href="#19" y="34.736"/><use xlink:href="#1" y="39.078"/><use xlink:href="#20" y="41.249"/><use xlink:href="#21" y="43.42"/></svg><svg x="5888"><use xlink:href="#a"/><use xlink:href="#b" x="1.996" y="49.908"/><use xlink:href="#1" y="2.171"/><use xlink:href="#8" y="4.342"/><use xlink:href="#9" y="6.513"/><use xlink:href="#10" y="10.855"/><use xlink:href="#11" y="13.026"/><use xlink:href="#12" y="15.197"/><use xlink:href="#13" y="17.368"/><use xlink:href="#14" y="19.539"/><use xlink:href="#15" y="21.71"/><use xlink:href="#16" y="23.881"/><use xlink:href="#17" y="26.052"/><use xlink:href="#1" y="30.394"/><use xlink:href="#18" y="32.565"/><use xlink:href="#19" y="34.736"/><use xlink:href="#1" y="39.078"/><use xlink:href="#20" y="41.249"/><use xlink:href="#21" y="43.42"/><use xlink:href="#1" y="47.762"/><use xlink:href="#2" y="49.933"/></svg><svg x="5980"><use xlink:href="#a"/><use xlink:href="#b" x="1.996" y="49.908"/><use xlink:href="#1" y="2.171"/><use xlink:href="#8" y="4.342"/><use xlink:href="#9" y="6.513"/><use xlink:href="#10" y="10.855"/><use xlink:href="#11" y="13.026"/><use xlink:href="#12" y="15.197"/><use xlink:href="#13" y="17.368"/><use xlink:href="#14" y="19.539"/><use xlink:href="#15" y="21.71"/><use xlink:href="#16" y="23.881"/><use xlink:href="#17" y="26.052"/><use xlink:href="#1" y="30.394"/><use xlink:href="#18" y="32.565"/><use xlink:href="#19" y="34.736"/><use xlink:href="#1" y="39.078"/><use xlink:href="#20" y="41.249"/><use xlink:href="#21" y="43.42"/><use xlink:href="#1" y="47.762"/><use xlink:href="#2" y="49.933"/></svg><svg x="6072"><use xlink:href="#a"/><use xlink:href="#b" x="1.996" y="49.908"/><use xlink:href="#1" y="2.171"/><use xlink:href="#8" y="4.342"/><use xlink:href="#9" y="6.513"/><use xlink:href="#10" y="10.855"/><use xlink:href="#11" y="13.026"/><use xlink:href="#12" y="15.197"/><use xlink:href="#13" y="17.368"/><use xlink:href="#14" y="19.539"/><use xlink:href="#15" y="21.71"/><use xlink:href="#16" y="23.881"/><use xlink:href="#17" y="26.052"/><use xlink:href="#1" y="30.394"/><use xlink:href="#18" y="32.565"/><use xlink:href="#19" y="34.736"/><use xlink:href="#1" y="39.078"/><use xlink:href="#20" y="41.249"/><use xlink:href="#21" y="43.42"/><use xlink:href="#1" y="47.762"/><use xlink:href="#2" y="49.933"/></svg><svg x="6164"><use xlink:href="#a"/><use xlink:href="#b" x="-.004" y="52.079"/><use xlink:href="#1" y="2.171"/><use xlink:href="#8" y="4.342"/><use xlink:href="#9" y="6.513"/><use xlink:href="#10" y="10.855"/><use xlink:href="#11" y="13.026"/><use xlink:href="#12" y="15.197"/><use xlink:href="#13" y="17.368"/><use xlink:href="#14" y="19.539"/><use xlink:href="#15" y="21.71"/><use xlink:href="#16" y="23.881"/><use xlink:href="#17" y="26.052"/><use xlink:href="#1" y="30.394"/><use xlink:href="#18" y="32.565"/><use xlink:href="#19" y="34.736"/><use xlink:href="#1" y="39.078"/><use xlink:href="#20" y="41.249"/><use xlink:href="#21" y="43.42"/><use xlink:href="#1" y="47.762"/><use xlink:href="#2" y="49.933"/></svg></svg></g></g></svg></svg>